<svg version="1.1" id="Layer_1" xmlns="http://www.w3.org/2000/svg" xmlns:xlink="http://www.w3.org/1999/xlink" x="0px" y="0px"
	 width="100%" viewBox="0 0 1049 207" enable-background="new 0 0 1049 207" xml:space="preserve">
<path fill="none" opacity="1.000000" stroke="none" 
	d="
M1050.000000,36.000000 
	C1050.000000,54.023327 1050.000000,72.046654 1049.531372,90.534851 
	C1013.847778,90.999725 978.632751,90.999725 943.362549,90.999725 
	C943.362549,100.246498 943.362549,109.089188 943.362549,118.000000 
	C979.151062,118.000000 1014.575562,118.000000 1050.000000,118.000000 
	C1050.000000,137.356659 1050.000000,156.713318 1049.531372,176.532806 
	C1013.716064,176.995636 978.369385,176.995636 943.351074,176.995636 
	C943.351074,186.767258 943.351074,195.835464 943.351074,205.000000 
	C979.135681,205.000000 1014.567871,205.000000 1050.000000,205.000000 
	C1050.000000,205.999451 1050.000000,206.998901 1050.000000,207.999176 
	C789.976685,208.000000 529.953369,208.000000 269.662720,207.631546 
	C273.611908,206.682297 277.925140,206.487350 282.029022,205.457870 
	C307.991730,198.945114 327.445068,183.680374 341.508942,161.082886 
	C356.002960,137.794296 359.889191,112.356499 355.709381,85.828056 
	C351.985931,62.195896 341.027527,41.933083 323.160828,25.607363 
	C310.420776,13.966140 295.738373,6.324811 278.811707,2.983163 
	C275.538239,2.336916 272.270416,1.661799 269.000000,0.999999 
	C529.333313,1.000000 789.666687,1.000000 1050.000000,1.007243 
	C1050.000000,3.013228 1050.000000,5.011970 1049.531372,7.505051 
	C1013.835205,7.999390 978.607666,7.999390 943.340088,7.999390 
	C943.340088,17.595148 943.340088,26.778978 943.340088,36.000000 
	C979.121155,36.000000 1014.560608,36.000000 1050.000000,36.000000 
M508.404633,31.987141 
	C502.732056,28.015190 497.393433,23.414463 491.323608,20.190399 
	C473.834381,10.900787 454.623474,7.904618 435.170380,7.141915 
	C417.865448,6.463436 400.512878,7.000043 383.181335,7.000322 
	C378.565552,7.000396 373.949768,7.000333 369.241699,7.000333 
	C369.241699,72.202568 369.241699,136.933472 369.241699,202.000305 
	C386.443512,202.000305 403.416046,202.360413 420.364136,201.872192 
	C431.448425,201.552887 442.615814,200.706406 453.537720,198.862442 
	C477.464813,194.822800 497.468628,183.608887 513.012573,164.594666 
	C524.741760,150.246780 531.388611,133.697632 532.690552,115.605804 
	C533.628235,102.574669 532.328308,89.260170 530.840515,76.207245 
	C528.897766,59.163422 520.643982,44.836510 508.404633,31.987141 
M643.505005,177.000061 
	C639.339294,177.000076 635.172180,176.941360 631.008911,177.042679 
	C630.007629,177.067047 628.531921,177.308838 628.099426,177.981339 
	C623.178650,185.631119 618.418213,193.383987 613.225098,201.736176 
	C647.075012,201.736176 679.928406,201.736176 713.143188,201.736176 
	C709.023682,190.707840 704.962952,179.959381 700.992004,169.177887 
	C694.851196,152.505112 688.827881,135.788895 682.652100,119.129166 
	C674.811462,97.978142 666.853271,76.870689 658.973755,55.734001 
	C653.214600,40.285259 647.538879,24.805166 641.681702,9.393891 
	C641.288391,8.359220 639.684753,7.118451 638.628540,7.103919 
	C626.819946,6.941435 615.008240,7.001330 603.520203,7.001330 
	C579.155579,72.092041 554.938721,136.788101 530.529175,201.998978 
	C542.419006,201.998978 553.568726,202.089996 564.711731,201.859970 
	C565.841675,201.836639 567.505493,200.078979 567.954407,198.789520 
	C575.065979,178.358444 582.051880,157.883331 589.000305,137.395828 
	C596.459290,115.402847 603.868958,93.393059 611.260559,71.377335 
	C614.801941,60.829426 618.252075,50.250889 621.201782,41.325520 
	C636.426697,85.613503 652.095520,131.192871 667.842712,177.000061 
	C659.826294,177.000061 652.164551,177.000061 643.505005,177.000061 
M813.031433,142.265182 
	C810.978943,135.033447 808.298645,127.911613 807.009216,120.546295 
	C804.580627,106.673248 804.895569,92.571350 809.503540,79.259308 
	C816.250916,59.766941 828.809814,45.068153 848.731934,37.741760 
	C862.829834,32.557251 877.411560,31.234846 891.987549,34.653812 
	C901.211243,36.817318 910.054382,40.602798 918.845703,43.585312 
	C918.845703,33.461216 918.845703,22.368484 918.845703,10.204337 
	C909.248474,8.458591 899.678223,5.817106 889.975708,5.175924 
	C877.229065,4.333562 864.227295,3.859588 851.612122,5.438979 
	C837.086060,7.257617 823.442322,13.021520 811.671509,22.097881 
	C800.349915,30.827869 790.391968,40.874859 783.639160,53.759380 
	C777.046692,66.337776 773.211243,79.526314 771.765259,93.762184 
	C770.203552,109.137413 770.669128,124.276268 774.635864,139.044205 
	C779.445068,156.948441 788.419861,172.460678 802.998169,184.685425 
	C818.242493,197.468643 835.868713,203.782730 855.223267,204.762314 
	C867.319763,205.374527 879.644897,204.445618 891.657043,202.732925 
	C900.075134,201.532684 908.170654,197.937088 916.322510,195.154282 
	C917.470642,194.762344 918.855408,192.923187 918.882141,191.725967 
	C919.092651,182.324265 918.998962,172.915771 918.998962,162.907806 
	C916.416870,164.474915 914.486328,165.939667 912.331726,166.903488 
	C903.041443,171.059341 893.495850,173.930298 883.239075,175.221497 
	C872.136414,176.619217 861.383972,176.137131 850.757446,173.237915 
	C833.944214,168.650803 821.840149,158.001038 813.031433,142.265182 
M716.995728,187.350204 
	C718.631775,196.685623 723.824585,202.889114 733.277039,204.643433 
	C745.333496,206.881027 757.842041,199.810867 757.772766,186.417755 
	C757.698792,172.096359 742.584961,163.221970 729.166992,168.994904 
	C721.611145,172.245758 718.137878,178.642776 716.995728,187.350204 
z"/>
<path fill="#FEF112" opacity="1.000000" stroke="none" 
	d="
M268.533142,0.999999 
	C272.270416,1.661799 275.538239,2.336916 278.811707,2.983163 
	C295.738373,6.324811 310.420776,13.966140 323.160828,25.607363 
	C341.027527,41.933083 351.985931,62.195896 355.709381,85.828056 
	C359.889191,112.356499 356.002960,137.794296 341.508942,161.082886 
	C327.445068,183.680374 307.991730,198.945114 282.029022,205.457870 
	C277.925140,206.487350 273.611908,206.682297 269.197723,207.631546 
	C263.977905,208.000000 258.955811,208.000000 253.269135,207.631531 
	C249.521713,206.848114 246.406631,206.595932 243.361008,205.992935 
	C213.697754,200.120056 192.540665,182.707703 178.042130,156.850815 
	C166.347809,135.995026 162.939072,113.488815 165.907104,89.782982 
	C167.850372,74.262154 172.725876,59.874405 181.109467,46.798397 
	C195.114120,24.955143 214.264984,9.833397 239.824234,3.599165 
	C244.169006,2.539419 248.605743,1.856833 253.000000,1.000000 
	C258.022095,1.000000 263.044189,1.000000 268.533142,0.999999 
M271.761536,20.096430 
	C271.591614,20.740250 271.369904,21.375294 271.259155,22.029142 
	C263.898071,65.487114 256.537109,108.945114 249.198669,152.406906 
	C247.105652,164.802765 245.080276,177.210037 242.991257,189.808807 
	C245.353027,189.808807 247.265259,189.808807 249.456833,189.808807 
	C259.120178,132.828156 268.746918,76.063431 278.463257,18.770264 
	C275.712524,19.003195 273.926575,19.154430 271.761536,20.096430 
M196.346817,103.943733 
	C197.224915,106.491951 197.500122,109.518143 199.079529,111.510361 
	C208.893280,123.889053 218.992310,136.041763 229.020096,148.250229 
	C229.998428,149.441299 231.135681,150.501816 232.499527,151.939590 
	C233.615402,138.357819 233.594849,138.375229 226.892578,130.465302 
	C219.815857,122.113472 212.783676,113.723892 205.542297,105.125504 
	C213.528503,94.369690 220.961731,83.532860 229.296539,73.440613 
	C234.360840,67.308464 232.311447,61.033146 232.291138,54.572037 
	C224.963364,63.635979 218.127914,72.824341 211.398773,82.089905 
	C206.331116,89.067764 201.399719,96.144608 196.346817,103.943733 
M311.825623,125.332687 
	C315.507751,120.818626 319.188416,116.303375 322.872375,111.790840 
	C326.763397,107.024727 326.901154,104.237007 323.340729,99.384552 
	C313.005249,85.298378 302.648621,71.227730 292.278839,57.166794 
	C291.559601,56.191528 290.664185,55.346153 289.624786,54.188858 
	C288.211060,62.870777 289.305664,70.039093 295.137665,76.701202 
	C301.912903,84.440742 307.505676,93.204155 313.872467,101.318535 
	C316.118195,104.180656 316.290405,106.045227 313.728516,108.874855 
	C307.028107,116.275452 301.125397,124.440033 294.079407,131.473297 
	C287.982544,137.559143 289.056519,144.321503 289.510529,152.457764 
	C297.230438,143.060059 304.293121,134.462433 311.825623,125.332687 
z"/>
<path fill="none" opacity="1.000000" stroke="none" 
	d="
M252.531342,1.000000 
	C248.605743,1.856833 244.169006,2.539419 239.824234,3.599165 
	C214.264984,9.833397 195.114120,24.955143 181.109467,46.798397 
	C172.725876,59.874405 167.850372,74.262154 165.907104,89.782982 
	C162.939072,113.488815 166.347809,135.995026 178.042130,156.850815 
	C192.540665,182.707703 213.697754,200.120056 243.361008,205.992935 
	C246.406631,206.595932 249.521713,206.848114 252.802277,207.631531 
	C169.108215,208.000000 85.216431,208.000000 1.000000,208.000000 
	C1.000000,178.979919 1.000000,149.958618 1.391646,120.635590 
	C2.187937,124.571991 2.082848,128.934799 3.083871,133.027039 
	C7.879770,152.633011 16.335758,170.043671 32.005020,183.692261 
	C48.009094,197.632492 66.651718,203.933029 87.340157,204.881592 
	C95.723442,205.265961 104.169563,204.385590 112.582733,203.988464 
	C125.814697,203.363861 138.137543,199.451172 149.799911,193.692215 
	C149.799911,183.386765 149.799911,173.292496 149.799911,162.481903 
	C147.036652,164.135941 144.843185,165.735901 142.425735,166.849716 
	C125.857811,174.483124 108.679016,177.676468 90.358543,175.091415 
	C64.677475,171.467758 48.122787,156.941315 39.752483,133.098434 
	C34.461014,118.025635 34.811707,102.374161 37.932655,86.669106 
	C44.321789,54.518150 70.260147,34.633171 101.193024,33.036419 
	C118.412720,32.147541 134.512970,36.273357 150.000366,45.366955 
	C150.000366,34.443996 150.057449,24.033487 149.898132,13.626296 
	C149.884567,12.739477 148.597916,11.488585 147.617111,11.059342 
	C137.587051,6.669756 126.861000,4.812537 116.109238,4.188859 
	C106.409966,3.626235 96.599426,4.394543 86.870506,5.055205 
	C67.761566,6.352838 50.996014,13.953475 36.562035,26.114988 
	C19.714756,40.309856 8.404337,58.221214 4.008113,80.102097 
	C2.945803,85.389427 1.999597,90.700073 1.000000,96.000000 
	C1.000000,64.373299 1.000000,32.746590 1.000000,1.000000 
	C84.687523,1.000000 168.375107,1.000000 252.531342,1.000000 
z"/>
<path fill="#FFFFFF" opacity="1.000000" stroke="none" 
	d="
M1.000000,96.468636 
	C1.999597,90.700073 2.945803,85.389427 4.008113,80.102097 
	C8.404337,58.221214 19.714756,40.309856 36.562035,26.114988 
	C50.996014,13.953475 67.761566,6.352838 86.870506,5.055205 
	C96.599426,4.394543 106.409966,3.626235 116.109238,4.188859 
	C126.861000,4.812537 137.587051,6.669756 147.617111,11.059342 
	C148.597916,11.488585 149.884567,12.739477 149.898132,13.626296 
	C150.057449,24.033487 150.000366,34.443996 150.000366,45.366955 
	C134.512970,36.273357 118.412720,32.147541 101.193024,33.036419 
	C70.260147,34.633171 44.321789,54.518150 37.932655,86.669106 
	C34.811707,102.374161 34.461014,118.025635 39.752483,133.098434 
	C48.122787,156.941315 64.677475,171.467758 90.358543,175.091415 
	C108.679016,177.676468 125.857811,174.483124 142.425735,166.849716 
	C144.843185,165.735901 147.036652,164.135941 149.799911,162.481903 
	C149.799911,173.292496 149.799911,183.386765 149.799911,193.692215 
	C138.137543,199.451172 125.814697,203.363861 112.582733,203.988464 
	C104.169563,204.385590 95.723442,205.265961 87.340157,204.881592 
	C66.651718,203.933029 48.009094,197.632492 32.005020,183.692261 
	C16.335758,170.043671 7.879770,152.633011 3.083871,133.027039 
	C2.082848,128.934799 2.187937,124.571991 1.391646,120.166931 
	C1.000000,112.312424 1.000000,104.624847 1.000000,96.468636 
z"/>
<path fill="#FFFFFF" opacity="1.000000" stroke="none" 
	d="
M1050.000000,35.531342 
	C1014.560608,36.000000 979.121155,36.000000 943.340088,36.000000 
	C943.340088,26.778978 943.340088,17.595148 943.340088,7.999390 
	C978.607666,7.999390 1013.835205,7.999390 1049.531372,7.999695 
	C1050.000000,17.020895 1050.000000,26.041792 1050.000000,35.531342 
z"/>
<path fill="#FFFFFF" opacity="1.000000" stroke="none" 
	d="
M1050.000000,204.531342 
	C1014.567871,205.000000 979.135681,205.000000 943.351074,205.000000 
	C943.351074,195.835464 943.351074,186.767258 943.351074,176.995636 
	C978.369385,176.995636 1013.716064,176.995636 1049.531372,176.997818 
	C1050.000000,186.020889 1050.000000,195.041794 1050.000000,204.531342 
z"/>
<path fill="#FFFFFF" opacity="1.000000" stroke="none" 
	d="
M1050.000000,117.531342 
	C1014.575562,118.000000 979.151062,118.000000 943.362549,118.000000 
	C943.362549,109.089188 943.362549,100.246498 943.362549,90.999725 
	C978.632751,90.999725 1013.847778,90.999725 1049.531372,90.999863 
	C1050.000000,99.687561 1050.000000,108.375130 1050.000000,117.531342 
z"/>
<path fill="#FFFFFF" opacity="1.000000" stroke="none" 
	d="
M508.701965,32.198475 
	C520.643982,44.836510 528.897766,59.163422 530.840515,76.207245 
	C532.328308,89.260170 533.628235,102.574669 532.690552,115.605804 
	C531.388611,133.697632 524.741760,150.246780 513.012573,164.594666 
	C497.468628,183.608887 477.464813,194.822800 453.537720,198.862442 
	C442.615814,200.706406 431.448425,201.552887 420.364136,201.872192 
	C403.416046,202.360413 386.443512,202.000305 369.241699,202.000305 
	C369.241699,136.933472 369.241699,72.202568 369.241699,7.000333 
	C373.949768,7.000333 378.565552,7.000396 383.181335,7.000322 
	C400.512878,7.000043 417.865448,6.463436 435.170380,7.141915 
	C454.623474,7.904618 473.834381,10.900787 491.323608,20.190399 
	C497.393433,23.414463 502.732056,28.015190 508.701965,32.198475 
M401.999725,58.500031 
	C401.999725,96.913437 401.999725,135.326843 401.999725,174.898956 
	C417.395935,173.905075 432.295563,173.855057 446.901428,171.758575 
	C463.386139,169.392380 476.796204,160.711105 486.537811,146.925964 
	C496.418701,132.943710 498.606354,116.772362 498.817322,100.328506 
	C498.905579,93.449135 497.470245,86.434753 495.907349,79.671310 
	C491.203217,59.314053 478.634247,45.651974 458.754578,39.550201 
	C451.110443,37.203934 442.806519,36.536564 434.750549,36.118164 
	C423.942871,35.556843 413.084106,35.979118 401.999725,35.979118 
	C401.999725,42.886211 401.999725,50.193130 401.999725,58.500031 
z"/>
<path fill="#FFFFFF" opacity="1.000000" stroke="none" 
	d="
M644.003906,177.000061 
	C652.164551,177.000061 659.826294,177.000061 667.842712,177.000061 
	C652.095520,131.192871 636.426697,85.613503 621.201782,41.325520 
	C618.252075,50.250889 614.801941,60.829426 611.260559,71.377335 
	C603.868958,93.393059 596.459290,115.402847 589.000305,137.395828 
	C582.051880,157.883331 575.065979,178.358444 567.954407,198.789520 
	C567.505493,200.078979 565.841675,201.836639 564.711731,201.859970 
	C553.568726,202.089996 542.419006,201.998978 530.529175,201.998978 
	C554.938721,136.788101 579.155579,72.092041 603.520203,7.001330 
	C615.008240,7.001330 626.819946,6.941435 638.628540,7.103919 
	C639.684753,7.118451 641.288391,8.359220 641.681702,9.393891 
	C647.538879,24.805166 653.214600,40.285259 658.973755,55.734001 
	C666.853271,76.870689 674.811462,97.978142 682.652100,119.129166 
	C688.827881,135.788895 694.851196,152.505112 700.992004,169.177887 
	C704.962952,179.959381 709.023682,190.707840 713.143188,201.736176 
	C679.928406,201.736176 647.075012,201.736176 613.225098,201.736176 
	C618.418213,193.383987 623.178650,185.631119 628.099426,177.981339 
	C628.531921,177.308838 630.007629,177.067047 631.008911,177.042679 
	C635.172180,176.941360 639.339294,177.000076 644.003906,177.000061 
z"/>
<path fill="#FFFFFF" opacity="1.000000" stroke="none" 
	d="
M813.227234,142.600922 
	C821.840149,158.001038 833.944214,168.650803 850.757446,173.237915 
	C861.383972,176.137131 872.136414,176.619217 883.239075,175.221497 
	C893.495850,173.930298 903.041443,171.059341 912.331726,166.903488 
	C914.486328,165.939667 916.416870,164.474915 918.998962,162.907806 
	C918.998962,172.915771 919.092651,182.324265 918.882141,191.725967 
	C918.855408,192.923187 917.470642,194.762344 916.322510,195.154282 
	C908.170654,197.937088 900.075134,201.532684 891.657043,202.732925 
	C879.644897,204.445618 867.319763,205.374527 855.223267,204.762314 
	C835.868713,203.782730 818.242493,197.468643 802.998169,184.685425 
	C788.419861,172.460678 779.445068,156.948441 774.635864,139.044205 
	C770.669128,124.276268 770.203552,109.137413 771.765259,93.762184 
	C773.211243,79.526314 777.046692,66.337776 783.639160,53.759380 
	C790.391968,40.874859 800.349915,30.827869 811.671509,22.097881 
	C823.442322,13.021520 837.086060,7.257617 851.612122,5.438979 
	C864.227295,3.859588 877.229065,4.333562 889.975708,5.175924 
	C899.678223,5.817106 909.248474,8.458591 918.845703,10.204337 
	C918.845703,22.368484 918.845703,33.461216 918.845703,43.585312 
	C910.054382,40.602798 901.211243,36.817318 891.987549,34.653812 
	C877.411560,31.234846 862.829834,32.557251 848.731934,37.741760 
	C828.809814,45.068153 816.250916,59.766941 809.503540,79.259308 
	C804.895569,92.571350 804.580627,106.673248 807.009216,120.546295 
	C808.298645,127.911613 810.978943,135.033447 813.227234,142.600922 
z"/>
<path fill="#FFFFFF" opacity="1.000000" stroke="none" 
	d="
M716.991394,186.927734 
	C718.137878,178.642776 721.611145,172.245758 729.166992,168.994904 
	C742.584961,163.221970 757.698792,172.096359 757.772766,186.417755 
	C757.842041,199.810867 745.333496,206.881027 733.277039,204.643433 
	C723.824585,202.889114 718.631775,196.685623 716.991394,186.927734 
z"/>
<path fill="none" opacity="1.000000" stroke="none" 
	d="
M271.951050,19.701048 
	C273.926575,19.154430 275.712524,19.003195 278.463257,18.770264 
	C268.746918,76.063431 259.120178,132.828156 249.456833,189.808807 
	C247.265259,189.808807 245.353027,189.808807 242.991257,189.808807 
	C245.080276,177.210037 247.105652,164.802765 249.198669,152.406906 
	C256.537109,108.945114 263.898071,65.487114 271.259155,22.029142 
	C271.369904,21.375294 271.591614,20.740250 271.951050,19.701048 
z"/>
<path fill="none" opacity="1.000000" stroke="none" 
	d="
M196.377243,103.560562 
	C201.399719,96.144608 206.331116,89.067764 211.398773,82.089905 
	C218.127914,72.824341 224.963364,63.635979 232.291138,54.572037 
	C232.311447,61.033146 234.360840,67.308464 229.296539,73.440613 
	C220.961731,83.532860 213.528503,94.369690 205.542297,105.125504 
	C212.783676,113.723892 219.815857,122.113472 226.892578,130.465302 
	C233.594849,138.375229 233.615402,138.357819 232.499527,151.939590 
	C231.135681,150.501816 229.998428,149.441299 229.020096,148.250229 
	C218.992310,136.041763 208.893280,123.889053 199.079529,111.510361 
	C197.500122,109.518143 197.224915,106.491951 196.377243,103.560562 
z"/>
<path fill="none" opacity="1.000000" stroke="none" 
	d="
M311.590698,125.598747 
	C304.293121,134.462433 297.230438,143.060059 289.510529,152.457764 
	C289.056519,144.321503 287.982544,137.559143 294.079407,131.473297 
	C301.125397,124.440033 307.028107,116.275452 313.728516,108.874855 
	C316.290405,106.045227 316.118195,104.180656 313.872467,101.318535 
	C307.505676,93.204155 301.912903,84.440742 295.137665,76.701202 
	C289.305664,70.039093 288.211060,62.870777 289.624786,54.188858 
	C290.664185,55.346153 291.559601,56.191528 292.278839,57.166794 
	C302.648621,71.227730 313.005249,85.298378 323.340729,99.384552 
	C326.901154,104.237007 326.763397,107.024727 322.872375,111.790840 
	C319.188416,116.303375 315.507751,120.818626 311.590698,125.598747 
z"/>
<path fill="#none" opacity="1.000000" stroke="none" 
	d="
M401.999725,58.000038 
	C401.999725,50.193130 401.999725,42.886211 401.999725,35.979118 
	C413.084106,35.979118 423.942871,35.556843 434.750549,36.118164 
	C442.806519,36.536564 451.110443,37.203934 458.754578,39.550201 
	C478.634247,45.651974 491.203217,59.314053 495.907349,79.671310 
	C497.470245,86.434753 498.905579,93.449135 498.817322,100.328506 
	C498.606354,116.772362 496.418701,132.943710 486.537811,146.925964 
	C476.796204,160.711105 463.386139,169.392380 446.901428,171.758575 
	C432.295563,173.855057 417.395935,173.905075 401.999725,174.898956 
	C401.999725,135.326843 401.999725,96.913437 401.999725,58.000038 
z"/>
</svg>